
<svg width="48px" height="49px" viewBox="0 0 48 49" version="1.1" xmlns="http://www.w3.org/2000/svg" xmlns:xlink="http://www.w3.org/1999/xlink">
    <g id="2019.app" stroke="none" stroke-width="1" fill="none" fill-rule="evenodd">
        <ellipse id="Oval" stroke="#A6A6A6" fill="#FFFFFF" fill-rule="nonzero" cx="24.5" cy="23.5306122" rx="19.5" ry="19.1122449"></ellipse>
        <ellipse id="Oval" stroke="#979797" fill="#A6A6A6" fill-rule="nonzero" cx="18.5" cy="19.6122449" rx="3" ry="2.93877551"></ellipse>
        <ellipse id="Oval-Copy-3" stroke="#979797" fill="#A6A6A6" fill-rule="nonzero" cx="30.5" cy="19.6122449" rx="3" ry="2.93877551"></ellipse>
        <path d="M23,27.9387755 L31.8050363,29.4081633 L24.5,24.0204082 L24.1701656,24.2646374 C23.0293307,25.1093801 22.5578164,26.5898618 23,27.9387755 L23,27.9387755 L23,27.9387755 Z" id="Path-2" stroke="#979797" fill-rule="nonzero"></path>
        <path d="M14,30.877551 L15.9654895,31.3756674 C22.8912307,33.1308664 30.165105,32.9586144 37,30.877551 L37,30.877551 L37,30.877551" id="Path-3" stroke="#979797" stroke-linecap="round" fill-rule="nonzero"></path>
        <path d="M4.81948254,40.4361587 L5.00817761,40.354717 C6.71749513,39.6169672 7.69122963,37.7968964 7.3563873,35.9655248 L7.25542589,35.4133311 C7.05838991,34.3356713 7.77227651,33.3023263 8.84993624,33.1052903 C9.02874135,33.0725981 9.2111915,33.0646377 9.39216448,33.0816327 C11.0328685,33.2357087 12.5039317,34.1569791 13.358834,35.5658053 L13.75,36.2104228 C14.8248263,37.9816703 16.7983984,39.0048754 18.8653519,38.8624941 L40.2647023,37.3884086 C41.562599,37.2990035 42.7305789,38.1726594 43.0114075,39.4429603 C43.3363687,40.9128908 43.8032348,42.3478102 44.4054393,43.7275366 L44.4620081,43.8571429 C44.8628778,44.7755857 44.4433018,45.8450998 43.524859,46.2459694 C43.3704836,46.3133491 43.207478,46.3589051 43.0405375,46.3813252 L37.9620081,47.0633707 C33.0265815,47.7261975 28.012653,47.5070755 23.1538672,46.4162156 L12,43.9120289 L12,43.9120289 L4.99540881,42.3297144 C4.45669808,42.2080214 4.11863842,41.6726584 4.24033144,41.1339476 C4.31076382,40.8221575 4.52600447,40.5628253 4.81948254,40.4361587 Z" id="Path-4" stroke="#979797" fill="#F3F3F3" fill-rule="nonzero"></path>
        <path d="M23.606964,10.9382175 C23.5677617,10.9268253 23.5202875,10.9148703 23.4651252,10.9034158 C23.0791053,10.8232587 22.4529089,10.7913324 21.6091719,10.8077583 C20.1938161,10.8353125 18.447172,10.9755079 15.4016457,11.2776477 C15.1117339,11.3064594 15.1117339,11.3064594 14.8220735,11.3353833 C11.2054692,11.6967484 10.0842528,11.7978183 8.78140977,11.8528134 C7.92030705,11.8891619 7.29169213,11.8771178 6.8693743,11.8059034 C6.13112487,11.6814142 5.63057316,11.2225227 6.10170196,10.551097 C10.0831836,4.87691782 16.563495,1.42959184 23.6221139,1.42959184 C29.9103582,1.42959184 35.7573477,4.16152143 39.7965022,8.82659525 C40.2459644,9.34570743 40.0799652,9.94253525 39.5243097,10.3555195 C39.1551436,10.6298977 38.5749928,10.8741539 37.796417,11.1024032 C36.4141637,11.5076282 34.4034734,11.8562042 32.2387285,12.0801139 C30.1017115,12.3011555 28.0105755,12.3799365 26.4880373,12.2873228 C25.6535445,12.2365618 24.9961422,12.1359579 24.5362392,11.9774586 C23.9518908,11.7760708 23.5705347,11.4280055 23.606964,10.9382175 Z" id="Oval" stroke="#979797" stroke-width="1.1" fill="#F3F3F3" fill-rule="nonzero"></path>
        <path d="M5.5,18.1428571 L4.20310465,10.7959184 C13.2045171,8.24334596 20.0534822,6.77290163 24.75,6.38458537 C29.4465178,5.9962691 34.6145071,6.47313074 40.2539679,7.81517026 L42.8385935,16.6734694 C39.5400024,13.7813063 34.271209,12.4751838 27.0322132,12.755102 C19.7932174,13.0350202 12.615813,14.8309386 5.5,18.1428571 Z" id="Path-5" stroke="#979797" fill="#F3F3F3" fill-rule="nonzero"></path>
    </g>
</svg>
