
<svg width="48px" height="49px" viewBox="0 0 48 49" version="1.1" xmlns="http://www.w3.org/2000/svg" xmlns:xlink="http://www.w3.org/1999/xlink">
    <g id="2019.app" stroke="none" stroke-width="1" fill="none" fill-rule="evenodd">
        <ellipse id="Oval" stroke="#A6A6A6" fill="#FFFFFF" fill-rule="nonzero" cx="24.5" cy="23.5714286" rx="19.5" ry="19.1122449"></ellipse>
        <ellipse id="Oval" stroke="#979797" fill="#A6A6A6" fill-rule="nonzero" cx="18.5" cy="19.6530612" rx="3" ry="2.93877551"></ellipse>
        <ellipse id="Oval-Copy-3" stroke="#979797" fill="#A6A6A6" fill-rule="nonzero" cx="30.5" cy="19.6530612" rx="3" ry="2.93877551"></ellipse>
        <path d="M23,27.9795918 L31.8050363,29.4489796 L24.5,24.0612245 L24.1701656,24.3054537 C23.0293307,25.1501965 22.5578164,26.6306781 23,27.9795918 L23,27.9795918 L23,27.9795918 Z" id="Path-2" stroke="#979797" fill-rule="nonzero"></path>
        <path d="M23,33.8395271 C24.0447923,33.2675989 25.2334707,33.0121542 26.4209851,33.1043641 L29.4450244,33.3391793 L29.4450244,33.3391793" id="Path-3" stroke="#979797" stroke-linecap="round" fill-rule="nonzero"></path>
        <path d="M4.81948254,40.4769751 L5.00817761,40.3955333 C6.71749513,39.6577835 7.69122963,37.8377127 7.3563873,36.0063412 L7.25542589,35.4541474 C7.05838991,34.3764877 7.77227651,33.3431426 8.84993624,33.1461066 C9.02874135,33.1134145 9.2111915,33.1054541 9.39216448,33.122449 C11.0328685,33.2765251 12.5039317,34.1977954 13.358834,35.6066217 L13.75,36.2512391 C14.8248263,38.0224866 16.7983984,39.0456917 18.8653519,38.9033104 L40.2647023,37.4292249 C41.562599,37.3398198 42.7305789,38.2134758 43.0114075,39.4837767 C43.3363687,40.9537071 43.8032348,42.3886266 44.4054393,43.768353 L44.4620081,43.8979592 C44.8628778,44.816402 44.4433018,45.8859161 43.524859,46.2867857 C43.3704836,46.3541655 43.207478,46.3997215 43.0405375,46.4221415 L37.9620081,47.104187 C33.0265815,47.7670139 28.012653,47.5478919 23.1538672,46.4570319 L12,43.9528453 L12,43.9528453 L4.99540881,42.3705307 C4.45669808,42.2488377 4.11863842,41.7134747 4.24033144,41.174764 C4.31076382,40.8629738 4.52600447,40.6036416 4.81948254,40.4769751 Z" id="Path-4" stroke="#979797" fill="#F3F3F3" fill-rule="nonzero"></path>
        <path d="M23.606964,10.9790339 C23.5677617,10.9676417 23.5202875,10.9556866 23.4651252,10.9442321 C23.0791053,10.864075 22.4529089,10.8321487 21.6091719,10.8485746 C20.1938161,10.8761289 18.447172,11.0163242 15.4016457,11.318464 C15.1117339,11.3472757 15.1117339,11.3472757 14.8220735,11.3761996 C11.2054692,11.7375647 10.0842528,11.8386346 8.78140977,11.8936297 C7.92030705,11.9299782 7.29169213,11.9179341 6.8693743,11.8467197 C6.13112487,11.7222305 5.63057316,11.263339 6.10170196,10.5919133 C10.0831836,4.91773415 16.563495,1.47040816 23.6221139,1.47040816 C29.9103582,1.47040816 35.7573477,4.20233775 39.7965022,8.86741157 C40.2459644,9.38652376 40.0799652,9.98335158 39.5243097,10.3963358 C39.1551436,10.670714 38.5749928,10.9149702 37.796417,11.1432195 C36.4141637,11.5484445 34.4034734,11.8970206 32.2387285,12.1209302 C30.1017115,12.3419718 28.0105755,12.4207528 26.4880373,12.3281391 C25.6535445,12.2773782 24.9961422,12.1767742 24.5362392,12.0182749 C23.9518908,11.8168871 23.5705347,11.4688219 23.606964,10.9790339 Z" id="Oval" stroke="#979797" stroke-width="1.1" fill="#F3F3F3" fill-rule="nonzero"></path>
        <path d="M5.5,18.1836735 L4.20310465,10.8367347 C13.2045171,8.28416229 20.0534822,6.81371796 24.75,6.42540169 C29.4465178,6.03708543 34.6145071,6.51394706 40.2539679,7.85598659 L42.8385935,16.7142857 C39.5400024,13.8221226 34.271209,12.5160002 27.0322132,12.7959184 C19.7932174,13.0758366 12.615813,14.8717549 5.5,18.1836735 Z" id="Path-5" stroke="#979797" fill="#F3F3F3" fill-rule="nonzero"></path>
    </g>
</svg>
