
<svg width="48px" height="48px" viewBox="0 0 48 48" version="1.1" xmlns="http://www.w3.org/2000/svg" xmlns:xlink="http://www.w3.org/1999/xlink">
    <g id="2019.app" stroke="none" stroke-width="1" fill="none" fill-rule="evenodd">
        <g id="Group" transform="translate(9.000000, 11.000000)" stroke="#A6A6A6" stroke-linecap="round" stroke-linejoin="round" stroke-width="1.44">
            <path d="M27.2459833,0.483333333 L21.13085,4.01582333 C16.9941933,1.94464333 12.1287667,1.92579333 7.975,3.96295633 L1.93333333,0.483333333 L1.93333333,9.83680967 C1.05729167,11.5454897 0.600396667,13.4391413 0.598511667,15.3613097 C0.6192805,22.494343 6.83447833,28.275493 14.500145,28.275493 C22.1658117,28.275493 28.3810087,22.475493 28.3810087,15.3613097 C28.3828848,13.592213 27.9939513,11.843948 27.2462733,10.2428097 L27.2459833,0.483333333 Z" id="Stroke-1" fill="#FFFFFF"></path>
            <path d="M7.482,13.6788167 L10.28949,13.6788167" id="Stroke-2"></path>
            <path d="M17.5889833,13.6788167 L20.3964733,13.6788167" id="Stroke-3"></path>
            <path d="M11.9721667,17.6078333 L15.901135,17.6078333" id="Stroke-4"></path>
            <path d="M13.9393333,17.6078333 L13.9393333,19.56949" id="Stroke-5"></path>
        </g>
    </g>
</svg>
