
<svg width="48px" height="48px" viewBox="0 0 48 48" version="1.1" xmlns="http://www.w3.org/2000/svg" xmlns:xlink="http://www.w3.org/1999/xlink">
    <g id="2019.app" stroke="none" stroke-width="1" fill="none" fill-rule="evenodd">
        <g id="Group-3">
            <g id="noun_Dog_1583584" transform="translate(24.000000, 24.500000) scale(-1, 1) translate(-24.000000, -24.500000) translate(6.000000, 9.000000)" fill="#A6A6A6" fill-rule="nonzero">
                <path d="M18.5227278,31 L17.9077084,31 L17.5912854,31 L16.9851794,30.9818413 C11.900128,30.7094616 9.56038039,27.7995377 6.37832368,18.0665007 C6.21788385,17.5762171 5.35774807,16.4367618 4.44858901,15.2337512 C1.87263834,11.8199247 -1.65258135,7.13953241 0.865432711,5.03766854 C2.69266416,3.51688151 5.63406112,1.62384213 12.2254643,0.502545422 C17.9389051,-0.605132297 23.5498426,0.457148794 23.7860457,0.502545422 C30.7116985,1.3469227 33.3723258,3.5668178 35.1327073,5.03312888 L35.1327073,5.03312888 C37.655178,7.13499275 34.1255017,11.8108454 31.549551,15.2292115 C30.6403919,16.4367618 29.7802562,17.5762171 29.6198163,18.0619611 C26.4555863,27.7586808 24.1202953,30.6867633 19.0798106,30.9773017 L19.0798106,31 L18.5227278,31 Z M17.7740086,1.14263787 C16.1205869,1.14263787 14.2666155,1.26066911 12.4215574,1.61930247 C6.11538062,2.69066288 3.39681676,4.39303643 1.56958532,5.91382346 C-0.115032942,7.31657926 3.29431353,11.8380834 5.3310081,14.5391827 C6.4228903,15.9873352 7.21171948,17.0359973 7.43009593,17.7078674 C10.5586727,27.2593179 12.6265639,29.7606721 17.4932389,29.8605446 L17.5066088,29.8605446 L18.5182711,29.8605446 C23.3804894,29.7561324 25.4483806,27.2547782 28.5725007,17.7033277 C28.7908772,17.0314576 29.5797064,15.9873352 30.6715886,14.5346431 C32.7082831,11.8335437 36.1176296,7.3120396 34.4330113,5.9092838 L34.4330113,5.9092838 C32.6726298,4.44297272 30.2615757,2.4319021 23.6211492,1.61930247 C23.5542993,1.6147628 21.0585685,1.14263787 17.7740086,1.14263787 Z" id="Shape"></path>
                <path d="M20.6666882,23.1719728 L19.4113185,24.8759184 C18.6303861,25.6604082 17.3666193,25.6604082 16.5898856,24.8759184 L15.3345159,23.1719728 C14.9440497,22.7797279 16.4723259,22.1428571 18.000602,22.1428571 C19.5246796,22.1428571 21.0529558,22.7839456 20.6666882,23.1719728 Z" id="Path"></path>
                <path d="M29.4485225,17.7142857 L28.3688363,17.6901635 C28.3731551,17.5856339 28.5847736,7.09246851 25.0909091,3.37764674 L25.9028331,2.71428571 C29.6730972,6.72661485 29.4614787,17.2680247 29.4485225,17.7142857 Z" id="Path"></path>
                <path d="M7.77042124,18.8214286 L6.54545455,18.7533797 C6.57989136,18.3068087 7.37685764,7.75497456 9.77759557,2.82142857 L10.9090909,3.23397509 C8.5870657,8.00590491 7.77534078,18.7151021 7.77042124,18.8214286 Z" id="Path"></path>
                <path d="M22.9090909,12.4564962 C22.9090909,13.0670194 22.0823723,13.2857143 21.6007189,13.2857143 C21.1190654,13.2857143 20.7272727,12.7890947 20.7272727,12.1785714 C20.7272727,11.5680482 21.1190654,11.0714286 21.6007189,11.0714286 C22.0823723,11.0714286 22.9090909,11.845973 22.9090909,12.4564962 Z" id="Path"></path>
                <path d="M14.1818182,12.1785714 C14.1818182,12.7890947 13.7900255,13.2857143 13.308372,13.2857143 C12.8267186,13.2857143 12,13.0670194 12,12.4564962 C12,11.845973 12.8267186,11.0714286 13.308372,11.0714286 C13.7936199,11.0714286 14.1818182,11.5680482 14.1818182,12.1785714 Z" id="Path"></path>
            </g>
        </g>
    </g>
</svg>
