
<svg width="49px" height="49px" viewBox="0 0 49 49" version="1.1" xmlns="http://www.w3.org/2000/svg" xmlns:xlink="http://www.w3.org/1999/xlink">
    <g id="2019.app" stroke="none" stroke-width="1" fill="none" fill-rule="evenodd">
        <ellipse id="Oval" fill-opacity="0.01" fill="#FFFFFF" fill-rule="nonzero" cx="24.5" cy="24" rx="24.5" ry="24"></ellipse>
        <path d="M24.6088833,21.6232167 L24.6088833,13.8833333 L19.75895,16.6849633 C16.4781533,15.0423033 12.6193667,15.0273533 9.325,16.6430343 L4.53333333,13.8833333 L4.53333333,21.3016077 C3.83854167,22.6567677 3.47617667,24.1586293 3.47468167,25.6831077 C3.4911535,31.340341 8.42044833,35.925391 14.500115,35.925391 C20.5797817,35.925391 25.5090704,31.325391 25.5090704,25.6831077 C25.5105638,24.280031 25.2020993,22.893476 24.6091133,21.6236077 L24.6088833,21.6232167 Z" id="Stroke-1" stroke="#C7C7C7" stroke-width="1.152" fill="#E7E7E7" stroke-linecap="round" stroke-linejoin="round"></path>
        <path d="M8.934,24.3487167 L11.16063,24.3487167" id="Stroke-2" stroke="#C7C7C7" stroke-width="1.152" stroke-linecap="round" stroke-linejoin="round"></path>
        <path d="M16.9498833,24.3487167 L19.1765133,24.3487167" id="Stroke-3" stroke="#C7C7C7" stroke-width="1.152" stroke-linecap="round" stroke-linejoin="round"></path>
        <path d="M12.4951667,27.4648333 L15.611245,27.4648333" id="Stroke-4" stroke="#C7C7C7" stroke-width="1.152" stroke-linecap="round" stroke-linejoin="round"></path>
        <path d="M14.0553333,27.4648333 L14.0553333,29.02063" id="Stroke-5" stroke="#C7C7C7" stroke-width="1.152" stroke-linecap="round" stroke-linejoin="round"></path>
        <g id="noun_Dog_1583584" transform="translate(32.500000, 25.000000) scale(-1, 1) translate(-32.500000, -25.000000) translate(19.000000, 13.500000)" fill-rule="nonzero">
            <path d="M13.8920458,23 L13.4307813,23 L13.1934641,23 L12.7388845,22.9865275 C8.92509598,22.7844392 7.17028529,20.6254635 4.78374276,13.404178 C4.66341288,13.0404192 4.01831105,12.1950168 3.33644176,11.3024605 C1.40447875,8.76962158 -1.23943601,5.29707243 0.649074533,3.73762505 C2.01949812,2.60929918 4.22554584,1.2047861 9.16909823,0.372856281 C13.4541788,-0.448969124 17.6623819,0.339174912 17.8395343,0.372856281 C23.0337739,0.999329745 25.0292443,2.64634869 26.3495305,3.73425691 C28.2413835,5.2937043 25.5941262,8.76288531 23.6621632,11.2990924 C22.980294,12.1950168 22.3351921,13.0404192 22.2148622,13.4008098 C19.8416897,20.5951503 18.0902215,22.7675986 14.3098579,22.9831593 L14.3098579,23 L13.8920458,23 Z M13.8920458,23 L13.4307813,23 L13.1934641,23 L12.7388845,22.9865275 C8.92509598,22.7844392 7.17028529,20.6254635 4.78374276,13.404178 C4.66341288,13.0404192 4.01831105,12.1950168 3.33644176,11.3024605 C1.40447875,8.76962158 -1.23943601,5.29707243 0.649074533,3.73762505 C2.01949812,2.60929918 4.22554584,1.2047861 9.16909823,0.372856281 C13.4541788,-0.448969124 17.6623819,0.339174912 17.8395343,0.372856281 C23.0337739,0.999329745 25.0292443,2.64634869 26.3495305,3.73425691 C28.2413835,5.2937043 25.5941262,8.76288531 23.6621632,11.2990924 C22.980294,12.1950168 22.3351921,13.0404192 22.2148622,13.4008098 C19.8416897,20.5951503 18.0902215,22.7675986 14.3098579,22.9831593 L14.3098579,23 L13.8920458,23 Z" id="Shape" fill="#C7C7C7"></path>
            <path d="M13.3305064,0.847763584 C12.0904402,0.847763584 10.6999616,0.935335144 9.31616807,1.20141796 C4.58653546,1.99629827 2.54761257,3.25934961 1.17718899,4.38767547 C-0.0862747067,5.42842977 2.47073515,8.78309413 3.99825607,10.7871356 C4.81716773,11.8615713 5.40878961,12.6396109 5.57257194,13.1380951 C7.91900452,20.2246552 9.46992292,22.0804986 13.1199291,22.1545976 L13.1299566,22.1545976 L13.8887033,22.1545976 C17.5353671,22.0771305 19.0862855,20.2212871 21.4293756,13.134727 C21.5931579,12.6362427 22.1847798,11.8615713 23.0036914,10.7837675 C24.5312123,8.77972599 27.0882222,5.42506164 25.8247585,4.38430733 L25.8247585,4.38430733 C24.5044724,3.29639911 22.6961817,1.80431446 17.7158619,1.20141796 C17.6657244,1.19804982 15.7939264,0.847763584 13.3305064,0.847763584 Z" id="Path" fill="#E7E7E7"></path>
            <path d="M15.5000161,17.1921088 L14.5584888,18.4563265 C13.9727896,19.0383673 13.0249645,19.0383673 12.4424142,18.4563265 L11.5008869,17.1921088 C11.2080373,16.9010884 12.3542444,16.4285714 13.5004515,16.4285714 C14.6435097,16.4285714 15.7897168,16.9042177 15.5000161,17.1921088 Z" id="Path" fill="#C7C7C7"></path>
            <path d="M22.0863919,13.1428571 L21.2766273,13.12496 C21.2798663,13.0474058 21.4385802,5.26215405 18.8181818,2.50599597 L19.4271248,2.01382488 C22.2548229,4.99071424 22.0961091,12.8117602 22.0863919,13.1428571 Z" id="Path" fill="#C7C7C7"></path>
            <path d="M5.82781593,13.9642857 L4.90909091,13.9137978 C4.93491852,13.582471 5.53264323,5.7536908 7.33319668,2.09331797 L8.18181818,2.39940087 C6.44029927,5.93986494 5.83150559,13.8853984 5.82781593,13.9642857 Z" id="Path" fill="#C7C7C7"></path>
            <path d="M17.1818182,9.24191652 C17.1818182,9.69488536 16.5617792,9.85714286 16.2005392,9.85714286 C15.8392991,9.85714286 15.5454545,9.48868313 15.5454545,9.03571429 C15.5454545,8.58274544 15.8392991,8.21428571 16.2005392,8.21428571 C16.5617792,8.21428571 17.1818182,8.78894768 17.1818182,9.24191652 Z" id="Path" fill="#C7C7C7"></path>
            <path d="M10.6363636,9.03571429 C10.6363636,9.48868313 10.3425191,9.85714286 9.98127902,9.85714286 C9.62003894,9.85714286 9,9.69488536 9,9.24191652 C9,8.78894768 9.62003894,8.21428571 9.98127902,8.21428571 C10.3452149,8.21428571 10.6363636,8.58274544 10.6363636,9.03571429 Z" id="Path" fill="#C7C7C7"></path>
        </g>
    </g>
</svg>
