
<svg width="48px" height="48px" viewBox="0 0 48 48" version="1.1" xmlns="http://www.w3.org/2000/svg" xmlns:xlink="http://www.w3.org/1999/xlink">
    <g id="2019.app" stroke="none" stroke-width="1" fill="none" fill-rule="evenodd">
        <ellipse id="Oval" fill-rule="nonzero" cx="24" cy="24" rx="24" ry="23.5102041"></ellipse>
        <g id="Group" transform="translate(2.938776, 13.714286)" stroke="#A6A6A6" stroke-linecap="round" stroke-linejoin="round" stroke-width="1.152">
            <path d="M21.1678857,7.95743673 L21.1678857,0.375510204 L16.4169306,3.11996408 C13.203089,1.51082776 9.42305306,1.49618286 6.19591837,3.07889078 L1.50204082,0.375510204 L1.50204082,7.64239118 C0.821428571,8.96989486 0.466458776,10.4411063 0.464994286,11.9344728 C0.481129959,17.4762524 5.30982694,21.96773 11.2654188,21.96773 C17.2210106,21.96773 22.0497017,17.4616075 22.0497017,11.9344728 C22.0511646,10.5600304 21.7489953,9.20177241 21.168111,7.95781976 L21.1678857,7.95743673 Z" id="Stroke-1" fill="#FFFFFF"></path>
            <path d="M5.81289796,10.6273143 L7.99408653,10.6273143" id="Stroke-2"></path>
            <path d="M13.6651918,10.6273143 L15.8463804,10.6273143" id="Stroke-3"></path>
            <path d="M9.30138776,13.6798367 L12.3538727,13.6798367" id="Stroke-4"></path>
            <path d="M10.8297143,13.6798367 L10.8297143,15.2038824" id="Stroke-5"></path>
        </g>
        <g id="Group-3" transform="translate(18.612245, 13.224490)" fill-rule="nonzero">
            <g id="noun_Dog_1583584" transform="translate(13.224490, 11.755102) scale(-1, 1) translate(-13.224490, -11.755102) translate(0.000000, 0.489796)">
                <path d="M13.6085347,22.5306122 L13.1566837,22.5306122 L12.9242097,22.5306122 L12.4789073,22.5174146 C8.74295116,22.3194507 7.02395294,20.2045357 4.68611536,13.1306233 C4.56824119,12.7742882 3.9363047,11.9461389 3.26835111,11.0717981 C1.37581592,8.59064971 -1.2141414,5.18896892 0.635828114,3.66134699 C1.97828387,2.55604818 4.13931021,1.18019862 8.98197377,0.365246969 C13.1796037,-0.439806488 17.3019252,0.332252975 17.4754621,0.365246969 C22.5636969,0.97893526 24.5184434,2.59234157 25.8117849,3.65804759 C27.6650287,5.18566952 25.0717971,8.58405091 23.179262,11.0684987 C22.5113084,11.9461389 21.8793719,12.7742882 21.7614977,13.1273239 C19.4367573,20.1748411 17.7210333,22.3029537 14.01782,22.5141152 L14.01782,22.5306122 L13.6085347,22.5306122 Z M13.6085347,22.5306122 L13.1566837,22.5306122 L12.9242097,22.5306122 L12.4789073,22.5174146 C8.74295116,22.3194507 7.02395294,20.2045357 4.68611536,13.1306233 C4.56824119,12.7742882 3.9363047,11.9461389 3.26835111,11.0717981 C1.37581592,8.59064971 -1.2141414,5.18896892 0.635828114,3.66134699 C1.97828387,2.55604818 4.13931021,1.18019862 8.98197377,0.365246969 C13.1796037,-0.439806488 17.3019252,0.332252975 17.4754621,0.365246969 C22.5636969,0.97893526 24.5184434,2.59234157 25.8117849,3.65804759 C27.6650287,5.18566952 25.0717971,8.58405091 23.179262,11.0684987 C22.5113084,11.9461389 21.8793719,12.7742882 21.7614977,13.1273239 C19.4367573,20.1748411 17.7210333,22.3029537 14.01782,22.5141152 L14.01782,22.5306122 L13.6085347,22.5306122 Z" id="Shape" fill="#A6A6A6"></path>
                <path d="M13.0584553,0.830462287 C11.8436965,0.830462287 10.4815951,0.916246671 9.1260422,1.17689923 C4.4929327,1.95555749 2.49562048,3.19283227 1.15316472,4.29813107 C-0.0845139984,5.31764549 2.42031198,8.60384731 3.91665901,10.56699 C4.71885818,11.6194984 5.29840615,12.3816596 5.45884599,12.8699708 C7.75739218,19.8119071 9.27665918,21.6298762 12.8521755,21.702463 L12.8619983,21.702463 L13.6052604,21.702463 C17.1775024,21.6265768 18.6967694,19.8086077 20.9920414,12.8666714 C21.1524812,12.3783602 21.7320292,11.6194984 22.5342283,10.5636906 C24.0305754,8.60054791 26.5354013,5.31434609 25.2977226,4.29483167 L25.2977226,4.29483167 C24.0043811,3.22912566 22.2329944,1.76749172 17.3543137,1.17689923 C17.3051995,1.17359983 15.4716014,0.830462287 13.0584553,0.830462287 Z" id="Path" fill="#FFFFFF"></path>
                <path d="M15.1836893,16.8412495 L14.2613768,18.0796668 C13.6876306,18.6498292 12.7591489,18.6498292 12.1884874,18.0796668 L11.2661749,16.8412495 C10.9793018,16.5561683 12.102117,16.0932945 13.2249321,16.0932945 C14.3446626,16.0932945 15.4674777,16.5592337 15.1836893,16.8412495 Z" id="Path" fill="#A6A6A6"></path>
                <path d="M21.6356492,12.8746356 L20.8424104,12.8571037 C20.8455833,12.7811322 21.0010581,5.15476315 18.4341373,2.4548532 L19.0306529,1.97272642 C21.8006429,4.88886293 21.6451681,12.5502957 21.6356492,12.8746356 Z" id="Path" fill="#A6A6A6"></path>
                <path d="M5.70888091,13.6793003 L4.80890538,13.6298428 C4.8342059,13.3052777 5.41973214,5.63626854 7.1835396,2.0505972 L8.0148423,2.35043351 C6.30886459,5.8186432 5.71249527,13.6020229 5.70888091,13.6793003 Z" id="Path" fill="#A6A6A6"></path>
                <path d="M16.8311688,9.05330598 C16.8311688,9.49703056 16.2237837,9.65597668 15.8699159,9.65597668 C15.5160481,9.65597668 15.2282004,9.29503653 15.2282004,8.85131195 C15.2282004,8.40758737 15.5160481,8.04664723 15.8699159,8.04664723 C16.2237837,8.04664723 16.8311688,8.6095814 16.8311688,9.05330598 Z" id="Path" fill="#A6A6A6"></path>
                <path d="M10.419295,8.85131195 C10.419295,9.29503653 10.1314473,9.65597668 9.77757945,9.65597668 C9.42371161,9.65597668 8.81632653,9.49703056 8.81632653,9.05330598 C8.81632653,8.6095814 9.42371161,8.04664723 9.77757945,8.04664723 C10.1340881,8.04664723 10.419295,8.40758737 10.419295,8.85131195 Z" id="Path" fill="#A6A6A6"></path>
            </g>
        </g>
    </g>
</svg>
