
<svg width="48px" height="48px" viewBox="0 0 48 48" version="1.1" xmlns="http://www.w3.org/2000/svg" xmlns:xlink="http://www.w3.org/1999/xlink">
    <g id="2019.app" stroke="none" stroke-width="1" fill="none" fill-rule="evenodd">
        <g id="Group-14" transform="translate(8.000000, 5.000000)" fill="#A6A6A6" fill-rule="nonzero">
            <rect id="Rectangle" transform="translate(24.500000, 16.500000) rotate(-315.000000) translate(-24.500000, -16.500000) " x="22" y="14" width="5" height="5"></rect>
            <rect id="Rectangle" transform="translate(26.500000, 6.500000) rotate(-300.000000) translate(-26.500000, -6.500000) " x="24" y="4" width="5" height="5"></rect>
            <rect id="Rectangle" transform="translate(6.500000, 29.500000) rotate(-330.000000) translate(-6.500000, -29.500000) " x="2" y="25" width="9" height="9"></rect>
            <rect id="Rectangle" transform="translate(15.500000, 21.500000) rotate(-315.000000) translate(-15.500000, -21.500000) " x="11" y="17" width="9" height="9"></rect>
            <rect id="Rectangle" transform="translate(15.500000, 6.500000) rotate(-300.000000) translate(-15.500000, -6.500000) " x="11" y="2" width="9" height="9"></rect>
            <rect id="Rectangle" transform="translate(26.500000, 33.500000) rotate(-315.000000) translate(-26.500000, -33.500000) " x="24" y="31" width="5" height="5"></rect>
            <rect id="Rectangle" transform="translate(5.500000, 17.500000) rotate(-315.000000) translate(-5.500000, -17.500000) " x="3" y="15" width="5" height="5"></rect>
        </g>
    </g>
</svg>
