
<svg width="48px" height="48px" viewBox="0 0 48 48" version="1.1" xmlns="http://www.w3.org/2000/svg" xmlns:xlink="http://www.w3.org/1999/xlink">
    <g id="2019.app" stroke="none" stroke-width="1" fill="none" fill-rule="evenodd">
        <path d="M7.9576129,16.0015284 C7.80942839,16.0121136 7.67106452,16.0794007 7.57051613,16.1890284 C4.70580645,19.3130929 2,23.3594155 2,26.9309639 C2,30.4814155 4.66651613,33.4208345 8,33.4208345 C11.3334839,33.4208345 14,30.481222 14,26.9309639 C14,23.3594155 11.2941935,19.3130929 8.42948387,16.1890284 C8.3092729,16.0574755 8.1353871,15.9886671 7.95770968,16.0015284 L7.9576129,16.0015284 Z M7.99995161,17.4894316 C10.5826613,20.4358187 12.8386613,24.1366574 12.8386613,26.9309155 C12.8386613,29.9051736 10.6492419,32.2594962 7.99995161,32.2594962 C5.35066129,32.2594962 3.16124194,29.9051736 3.16124194,26.9309155 C3.16124194,24.1364639 5.41724194,20.4356252 7.99995161,17.4894316 Z M4.31053226,25.8603994 C4.01037742,25.8724962 3.76919677,26.1114123 3.75408065,26.4108123 C3.74652065,26.52422 3.74198387,26.6398962 3.74198387,26.7616187 C3.74198387,28.4332381 4.51995161,29.9203284 5.72585484,30.7837478 C5.84984581,30.8873271 6.01164839,30.9342007 6.17192581,30.9137891 C6.3322071,30.8926187 6.47736452,30.8064297 6.57111935,30.6741181 C6.66486839,30.5425652 6.69889226,30.3777568 6.66638194,30.2189697 C6.63311484,30.0609549 6.53558581,29.9233632 6.39723355,29.8401955 C5.51492387,29.2081439 4.90327226,28.0733116 4.90327226,26.7616149 C4.90327226,26.6761807 4.90856387,26.5869684 4.91536903,26.4894471 C4.92973419,26.3231155 4.87076194,26.1583052 4.75508774,26.0380923 C4.63941161,25.9178813 4.47761677,25.8528607 4.31052645,25.8604207 L4.31053226,25.8603994 Z" id="Fill-1" fill="#A6A6A6"></path>
        <path d="M39.9576129,16.0015284 C39.8094284,16.0121136 39.6710645,16.0794007 39.5705161,16.1890284 C36.7058065,19.3130929 34,23.3594155 34,26.9309639 C34,30.4814155 36.6665161,33.4208345 40,33.4208345 C43.3334839,33.4208345 46,30.481222 46,26.9309639 C46,23.3594155 43.2941935,19.3130929 40.4294839,16.1890284 C40.3092729,16.0574755 40.1353871,15.9886671 39.9577097,16.0015284 L39.9576129,16.0015284 Z M39.9999516,17.4894316 C42.5826613,20.4358187 44.8386613,24.1366574 44.8386613,26.9309155 C44.8386613,29.9051736 42.6492419,32.2594962 39.9999516,32.2594962 C37.3506613,32.2594962 35.1612419,29.9051736 35.1612419,26.9309155 C35.1612419,24.1364639 37.4172419,20.4356252 39.9999516,17.4894316 Z M36.3105323,25.8603994 C36.0103774,25.8724962 35.7691968,26.1114123 35.7540806,26.4108123 C35.7465206,26.52422 35.7419839,26.6398962 35.7419839,26.7616187 C35.7419839,28.4332381 36.5199516,29.9203284 37.7258548,30.7837478 C37.8498458,30.8873271 38.0116484,30.9342007 38.1719258,30.9137891 C38.3322071,30.8926187 38.4773645,30.8064297 38.5711194,30.6741181 C38.6648684,30.5425652 38.6988923,30.3777568 38.6663819,30.2189697 C38.6331148,30.0609549 38.5355858,29.9233632 38.3972335,29.8401955 C37.5149239,29.2081439 36.9032723,28.0733116 36.9032723,26.7616149 C36.9032723,26.6761807 36.9085639,26.5869684 36.915369,26.4894471 C36.9297342,26.3231155 36.8707619,26.1583052 36.7550877,26.0380923 C36.6394116,25.9178813 36.4776168,25.8528607 36.3105265,25.8604207 L36.3105323,25.8603994 Z" id="Fill-1" fill="#E2E2E2"></path>
        <path d="M23.9576129,16.0015284 C23.8094284,16.0121136 23.6710645,16.0794007 23.5705161,16.1890284 C20.7058065,19.3130929 18,23.3594155 18,26.9309639 C18,30.4814155 20.6665161,33.4208345 24,33.4208345 C27.3334839,33.4208345 30,30.481222 30,26.9309639 C30,23.3594155 27.2941935,19.3130929 24.4294839,16.1890284 C24.3092729,16.0574755 24.1353871,15.9886671 23.9577097,16.0015284 L23.9576129,16.0015284 Z M23.9999516,17.4894316 C26.5826613,20.4358187 28.8386613,24.1366574 28.8386613,26.9309155 C28.8386613,29.9051736 26.6492419,32.2594962 23.9999516,32.2594962 C21.3506613,32.2594962 19.1612419,29.9051736 19.1612419,26.9309155 C19.1612419,24.1364639 21.4172419,20.4356252 23.9999516,17.4894316 Z M20.3105323,25.8603994 C20.0103774,25.8724962 19.7691968,26.1114123 19.7540806,26.4108123 C19.7465206,26.52422 19.7419839,26.6398962 19.7419839,26.7616187 C19.7419839,28.4332381 20.5199516,29.9203284 21.7258548,30.7837478 C21.8498458,30.8873271 22.0116484,30.9342007 22.1719258,30.9137891 C22.3322071,30.8926187 22.4773645,30.8064297 22.5711194,30.6741181 C22.6648684,30.5425652 22.6988923,30.3777568 22.6663819,30.2189697 C22.6331148,30.0609549 22.5355858,29.9233632 22.3972335,29.8401955 C21.5149239,29.2081439 20.9032723,28.0733116 20.9032723,26.7616149 C20.9032723,26.6761807 20.9085639,26.5869684 20.915369,26.4894471 C20.9297342,26.3231155 20.8707619,26.1583052 20.7550877,26.0380923 C20.6394116,25.9178813 20.4776168,25.8528607 20.3105265,25.8604207 L20.3105323,25.8603994 Z" id="Fill-1" fill="#A6A6A6"></path>
    </g>
</svg>
