
<svg width="48px" height="49px" viewBox="0 0 48 49" version="1.1" xmlns="http://www.w3.org/2000/svg" xmlns:xlink="http://www.w3.org/1999/xlink">
    <g id="2019.app" stroke="none" stroke-width="1" fill="none" fill-rule="evenodd">
        <ellipse id="Oval" stroke="#A6A6A6" fill="#FFFFFF" fill-rule="nonzero" cx="25" cy="23.5306122" rx="19.5" ry="19.1122449"></ellipse>
        <ellipse id="Oval" stroke="#979797" fill-rule="nonzero" cx="19" cy="19.6122449" rx="3" ry="2.93877551"></ellipse>
        <path d="M20.5,18.1428571 L17.5,21.0816327" id="Line-2" stroke="#979797" stroke-linecap="round" fill-rule="nonzero"></path>
        <path d="M20.5,18.1428571 L17.5,21.0816327" id="Line-2" stroke="#979797" stroke-linecap="round" fill-rule="nonzero" transform="translate(19.000000, 19.612245) scale(1, -1) translate(-19.000000, -19.612245) "></path>
        <ellipse id="Oval" stroke="#979797" fill-rule="nonzero" cx="31" cy="19.6122449" rx="3" ry="2.93877551"></ellipse>
        <path d="M32.5,18.1428571 L29.5,21.0816327" id="Line-2" stroke="#979797" stroke-linecap="round" fill-rule="nonzero"></path>
        <path d="M32.5,18.1428571 L29.5,21.0816327" id="Line-2" stroke="#979797" stroke-linecap="round" fill-rule="nonzero" transform="translate(31.000000, 19.612245) scale(1, -1) translate(-31.000000, -19.612245) "></path>
        <path d="M23.5,27.9387755 L32.3050363,29.4081633 L25,24.0204082 L24.6701656,24.2646374 C23.5293307,25.1093801 23.0578164,26.5898618 23.5,27.9387755 L23.5,27.9387755 L23.5,27.9387755 Z" id="Path-2" stroke="#979797" fill-rule="nonzero"></path>
        <path d="M18,29.4081633 L19.4270487,29.8834861 C24.6723529,31.6305974 30.3671061,31.4621874 35.5,29.4081633 L35.5,29.4081633 L35.5,29.4081633" id="Path-3" stroke="#979797" stroke-linecap="round" fill-rule="nonzero" transform="translate(26.750000, 30.998720) scale(1, -1) translate(-26.750000, -30.998720) "></path>
        <path d="M5.31948254,40.4361587 L5.50817761,40.354717 C7.21749513,39.6169672 8.19122963,37.7968964 7.8563873,35.9655248 L7.75542589,35.4133311 C7.55838991,34.3356713 8.27227651,33.3023263 9.34993624,33.1052903 C9.52874135,33.0725981 9.7111915,33.0646377 9.89216448,33.0816327 C11.5328685,33.2357087 13.0039317,34.1569791 13.858834,35.5658053 L14.25,36.2104228 C15.3248263,37.9816703 17.2983984,39.0048754 19.3653519,38.8624941 L40.7647023,37.3884086 C42.062599,37.2990035 43.2305789,38.1726594 43.5114075,39.4429603 C43.8363687,40.9128908 44.3032348,42.3478102 44.9054393,43.7275366 L44.9620081,43.8571429 C45.3628778,44.7755857 44.9433018,45.8450998 44.024859,46.2459694 C43.8704836,46.3133491 43.707478,46.3589051 43.5405375,46.3813252 L38.4620081,47.0633707 C33.5265815,47.7261975 28.512653,47.5070755 23.6538672,46.4162156 L12.5,43.9120289 L12.5,43.9120289 L5.49540881,42.3297144 C4.95669808,42.2080214 4.61863842,41.6726584 4.74033144,41.1339476 C4.81076382,40.8221575 5.02600447,40.5628253 5.31948254,40.4361587 Z" id="Path-4" stroke="#979797" fill="#F3F3F3" fill-rule="nonzero"></path>
        <path d="M24.106964,10.9382175 C24.0677617,10.9268253 24.0202875,10.9148703 23.9651252,10.9034158 C23.5791053,10.8232587 22.9529089,10.7913324 22.1091719,10.8077583 C20.6938161,10.8353125 18.947172,10.9755079 15.9016457,11.2776477 C15.6117339,11.3064594 15.6117339,11.3064594 15.3220735,11.3353833 C11.7054692,11.6967484 10.5842528,11.7978183 9.28140977,11.8528134 C8.42030705,11.8891619 7.79169213,11.8771178 7.3693743,11.8059034 C6.63112487,11.6814142 6.13057316,11.2225227 6.60170196,10.551097 C10.5831836,4.87691782 17.063495,1.42959184 24.1221139,1.42959184 C30.4103582,1.42959184 36.2573477,4.16152143 40.2965022,8.82659525 C40.7459644,9.34570743 40.5799652,9.94253525 40.0243097,10.3555195 C39.6551436,10.6298977 39.0749928,10.8741539 38.296417,11.1024032 C36.9141637,11.5076282 34.9034734,11.8562042 32.7387285,12.0801139 C30.6017115,12.3011555 28.5105755,12.3799365 26.9880373,12.2873228 C26.1535445,12.2365618 25.4961422,12.1359579 25.0362392,11.9774586 C24.4518908,11.7760708 24.0705347,11.4280055 24.106964,10.9382175 Z" id="Oval" stroke="#979797" stroke-width="1.1" fill="#F3F3F3" fill-rule="nonzero"></path>
        <path d="M6,18.1428571 L4.70310465,10.7959184 C13.7045171,8.24334596 20.5534822,6.77290163 25.25,6.38458537 C29.9465178,5.9962691 35.1145071,6.47313074 40.7539679,7.81517026 L43.3385935,16.6734694 C40.0400024,13.7813063 34.771209,12.4751838 27.5322132,12.755102 C20.2932174,13.0350202 13.115813,14.8309386 6,18.1428571 Z" id="Path-5" stroke="#979797" fill="#F3F3F3" fill-rule="nonzero"></path>
    </g>
</svg>
