
<svg width="48px" height="48px" viewBox="0 0 48 48" version="1.1" xmlns="http://www.w3.org/2000/svg" xmlns:xlink="http://www.w3.org/1999/xlink">
    <g id="2019.app" stroke="none" stroke-width="1" fill="none" fill-rule="evenodd">
        <path d="M15.1688437,6 C14.4960125,6 13.9500937,6.53752 13.9500937,7.2 L13.9500937,11.8124 C12.5361406,12.3124 11.5125937,13.64676 11.5125937,15.19992 C11.5125937,17.17336 13.1645687,18.79992 15.1688437,18.79992 C17.1731187,18.79992 18.8250937,17.17336 18.8250937,15.19992 C18.8250937,13.6468 17.8015469,12.3124 16.3875937,11.8124 L16.3875937,7.2 C16.3875937,6.53752 15.841675,6 15.1688437,6 Z M33.8563437,6 C33.1835125,6 32.6375938,6.53752 32.6375938,7.2 L32.6375938,11.8124 C31.2236406,12.3124 30.2000938,13.64676 30.2000938,15.19992 C30.2000938,17.17336 31.8520688,18.79992 33.8563437,18.79992 C35.8606188,18.79992 37.5125937,17.17336 37.5125937,15.19992 C37.5125937,13.6468 36.4890469,12.3124 35.0750937,11.8124 L35.0750937,7.2 C35.0750937,6.53752 34.529175,6 33.8563437,6 Z M9.48134375,8.39988691 C7.0200375,8.39988691 5,10.38908 5,12.8124 L5,37.5876 C5,40.01104 7.02015938,42 9.48134375,42 L39.5186562,42 C41.9799625,42 44,40.01092 44,37.5876 L44,12.8124 C44,10.38896 41.9798406,8.39988691 39.5186562,8.39988691 L37.0938312,8.39988691 C36.4495594,8.390624 35.8624062,8.96564 35.8624062,9.6 C35.8624062,10.23436 36.4495594,10.80936 37.0938312,10.8 L39.5186562,10.8 C40.6691562,10.8 41.5625812,11.67968 41.5625812,12.81248 L41.5625812,19.60008 L7.43758288,19.60008 L7.43758288,12.81248 C7.43758288,11.67968 8.33100625,10.8 9.48150625,10.8 L11.9063312,10.8 C12.5506031,10.809376 13.1377562,10.23436 13.1377562,9.6 C13.1377562,8.96564 12.5506031,8.39064 11.9063312,8.39988691 L9.48134375,8.39988691 Z M18.40625,8.4 C17.7334187,8.4 17.1875,8.93752 17.1875,9.6 C17.1875,10.26248 17.7334187,10.8 18.40625,10.8 L30.59375,10.8 C31.2665812,10.8 31.8125,10.26248 31.8125,9.6 C31.8125,8.93752 31.2665812,8.4 30.59375,8.4 L18.40625,8.4 Z M15.168925,14 C15.8560562,14 16.387675,14.52344 16.387675,15.2 C16.387675,15.87656 15.8560562,16.4 15.168925,16.4 C14.4817937,16.4 13.950175,15.87656 13.950175,15.2 C13.950175,14.52344 14.4817937,14 15.168925,14 Z M33.856425,14 C34.5435562,14 35.075175,14.52344 35.075175,15.2 C35.075175,15.87656 34.5435562,16.4 33.856425,16.4 C33.1692937,16.4 32.637675,15.87656 32.637675,15.2 C32.637675,14.52344 33.1692937,14 33.856425,14 Z M7.43741794,22 L41.5625812,22 L41.5625812,37.5876 C41.5625812,38.7204 40.6691562,39.60008 39.5186562,39.60008 L9.48134375,39.60008 C8.33084375,39.60008 7.43741794,38.7204 7.43741794,37.5876 L7.43741794,22 Z" id="Fill-1" fill="#A6A6A6"></path>
        <path d="M22.43,27.77 L22.43,25.92 C22.79,25.98 23.05,25.99 23.63,25.99 L25.4853343,25.9880766 C25.7402479,25.9847107 25.8854545,25.9754545 26.14,25.95 C26.0971429,26.4042857 26.0763265,26.7777551 26.0712536,27.2908163 L26.07,32.8 C26.07,33.4 26.09,33.82 26.15,34.31 L23.97,34.31 C24.03,33.85 24.05,33.38 24.05,32.8 L24.05,27.7 L23.65,27.7 C23.26,27.7 22.87,27.72 22.43,27.77 Z" id="1" fill="#A6A6A6" fill-rule="nonzero"></path>
    </g>
</svg>
