<svg width="234px" height="200px" viewBox="0 0 234 200" version="1.1" xmlns="http://www.w3.org/2000/svg" xmlns:xlink="http://www.w3.org/1999/xlink">
    <g id="2019.app" stroke="none" stroke-width="1" fill="none" fill-rule="evenodd">
        <g id="first-pass-svg-logo">
            <path d="M73.5430436,54.1455762 L74.4625866,54.8661042 L134.398265,99.822 L134.554341,99.7060611 C134.583567,100.017369 134.602424,100.329066 134.610628,100.641137 L74.4625866,146.035349 L73.5430436,146.760352 C45.5634881,168.588833 21.421647,166.252574 9.7703877,144.326073 C9.06978745,142.946944 8.40106148,141.525789 7.76648099,140.065446 L7.45152742,139.287817 L7.45152742,139.287817 L7.13438512,138.469587 C6.85744357,137.738141 6.55788261,136.990868 6.24156782,136.227656 C6.32081892,136.464219 6.40092993,136.700356 6.4818969,136.936062 C2.36797152,126.303081 1.42108547e-14,113.833824 1.42108547e-14,100.5 C1.42108547e-14,83.1449626 4.01160459,67.254599 10.6643478,54.9712468 C22.6278799,34.6728262 46.2610966,32.9927242 73.5430436,54.1455762 Z" id="Combined-Shape" fill="#1D812B"></path>
            <path d="M135.224265,100.177 L191.671053,142.53484 C231.7431,174.278094 223.562506,200 173.416447,200 L173.416447,200 L91.8967352,200 C58.9250295,200 30.0572605,181.504754 14.1516401,153.835029 C10.974083,148.30729 8.31384968,142.413393 6.24156782,136.227656 C6.55788261,136.990868 6.85744357,137.738141 7.13438512,138.469587 C17.5481315,165.973957 43.7659904,170.491667 74.4625866,146.035349 L74.4625866,146.035349 L135.224265,100.177 Z" id="bottom" fill="#41B6AC" fill-rule="nonzero"></path>
            <path d="M134.398721,-0.001 L191.671053,42.7115633 C231.7431,74.2588716 223.562506,99.822 173.416447,99.822 L173.416447,99.822 L91.8967352,99.822 C58.9250295,99.822 30.0572605,81.4409222 14.1516401,53.9419983 C10.212094,47.1309922 7.0677328,39.7606364 4.85315273,31.9716811 C5.68588811,33.8826302 6.47437274,35.7043992 7.13438512,37.4368369 C17.5481315,64.7714261 43.7659904,69.2612496 74.4625866,44.9558958 L74.4625866,44.9558958 L134.398721,-0.001 Z" id="top" fill="#73B641" fill-rule="nonzero" transform="translate(110.976493, 49.911000) scale(1, -1) translate(-110.976493, -49.911000) "></path>
            <circle id="Oval" fill="#41B6AC" fill-rule="nonzero" cx="206.099265" cy="97" r="27"></circle>
        </g>
    </g>
</svg>
