
<svg width="97px" height="104px" viewBox="0 0 97 104" version="1.1" xmlns="http://www.w3.org/2000/svg" xmlns:xlink="http://www.w3.org/1999/xlink">
    <g id="2019.app" stroke="none" stroke-width="1" fill="none" fill-rule="evenodd">
        <path d="M49,0 C65.568254,0 79,13.431746 79,30 C79,38.4049896 75.5433664,46.0028051 69.9741562,51.4493892 C85.7086218,56.8186597 96.776875,67.9859294 96.9966666,81.5871017 L97,82 L97,95.13 C97,96.584974 96.7223768,98.1120764 96.095849,99.4891866 C94.923788,102.06538 92.6026275,104 89.344625,104 L89.344625,104 L8.717875,104 C4.11944641,104 0,99.5364343 0,95.13 L0,95.13 L0,82 L0,82 C0,67.9971016 11.4823707,56.5198216 27.7730706,51.1997119 C22.3526312,45.7722724 19,38.2775803 19,30 C19,13.431746 32.431746,0 49,0 Z M48.5,60 C28.1498431,60 12.3193469,70.2957874 12.004772,81.6554516 L12,82 L12,92 L85,92 L85,82 L85,82 L84.995228,81.6554516 C84.6806531,70.2957874 68.8501569,60 48.5,60 Z M49,12 C39.059163,12 31,20.059163 31,30 C31,39.940837 39.059163,48 49,48 C58.940837,48 67,39.940837 67,30 C67,20.059163 58.940837,12 49,12 Z" id="Combined-Shape" fill="#A6A6A6" fill-rule="nonzero"></path>
    </g>
</svg>
