
<svg width="48px" height="48px" viewBox="0 0 48 48" version="1.1" xmlns="http://www.w3.org/2000/svg" xmlns:xlink="http://www.w3.org/1999/xlink">
    <g id="2019.app" stroke="none" stroke-width="1" fill="none" fill-rule="evenodd">
        <path d="M24.2201739,15 C19.136,15 15,19.3681163 15,24.5687058 C15,29.7692954 19.136,34 24.2201739,34 M24.2201739,32.1292536 C20.144,32.1292536 16.8288696,28.7381434 16.8288696,24.5687058 C16.8288696,20.3992683 20.1440696,17.0081581 24.2201739,17.0081581 C28.2962783,17.0081581 31.6114783,20.3992683 31.6114783,24.5687058 C31.6114783,28.7381434 28.2962783,32.1292536 24.2201739,32.1292536 Z" id="Fill-1" fill="#A6A6A6"></path>
        <path d="M24,34.813913 C23.4945739,34.813913 23.0856,35.222887 23.0856,35.728313 L23.0856,38.7378073 C23.0856,39.2432334 23.4945739,39.6522073 24,39.6522073 C24.5054261,39.6522073 24.9144,39.2432334 24.9144,38.7378073 L24.9144,35.728313 C24.9144,35.222887 24.5054261,34.813913 24,34.813913 Z" id="Fill-2" fill="#A6A6A6"></path>
        <path d="M23.0855652,9.26222609 L23.0855652,12.2744696 C23.0855652,12.7798957 23.4945391,13.1888696 23.9999652,13.1888696 C24.5053913,13.1888696 24.9143652,12.7798957 24.9143652,12.2744696 L24.9143652,9.26222609 C24.9143652,8.7568 24.5053913,8.34782609 23.9999652,8.34782609 C23.4945391,8.34782609 23.0855652,8.7568 23.0855652,9.26222609 Z" id="Fill-3" fill="#A6A6A6"></path>
        <path d="M16.6302609,37.677913 C16.9454783,37.677913 17.253913,37.5135096 17.4223652,37.2213913 L18.9291478,34.6140522 C19.1818643,34.1765565 19.0324104,33.6167652 18.5949078,33.3640348 C18.1560557,33.1113183 17.5976209,33.2607722 17.3448904,33.6982748 L15.8381078,36.3056139 C15.5853913,36.7431096 15.7348452,37.3029009 16.1723478,37.5556313 C16.3177287,37.6385113 16.4753357,37.677913 16.6302261,37.677913 L16.6302609,37.677913 Z" id="Fill-5" fill="#A6A6A6"></path>
        <path d="M10.4455652,31.826087 C10.6154017,32.1195652 10.9224696,32.2839652 11.2390261,32.2839652 C11.3939165,32.2839652 11.551527,32.2445635 11.6955478,32.1616835 L14.3056,30.6549009 C14.7430957,30.4021843 14.8925565,29.8424139 14.6411965,29.4048835 C14.38848,28.9673878 13.8287096,28.8165704 13.3911791,29.069287 L10.781127,30.5760696 C10.3422748,30.8287861 10.1928139,31.3885565 10.4455304,31.826087 L10.4455652,31.826087 Z" id="Fill-7" fill="#A6A6A6"></path>
        <path d="M13.1902609,24 C13.1902609,23.4945739 12.781287,23.0856 12.2758609,23.0856 L9.26226122,23.0856 C8.75683513,23.0856 8.34786122,23.4945739 8.34786122,24 C8.34786122,24.5054261 8.75683513,24.9144 9.26226122,24.9144 L12.2745043,24.9144 C12.781287,24.9144 13.1902609,24.5054261 13.1902609,24 Z" id="Fill-9" fill="#A6A6A6"></path>
        <path d="M10.4455652,16.173913 C10.1928487,16.6114087 10.3423026,17.1712 10.7811617,17.4239304 L13.3912139,18.930713 C13.5352348,19.013593 13.6928452,19.0529948 13.8477357,19.0529948 C14.164313,19.0529948 14.4713878,18.8885913 14.6411965,18.5951165 C14.893913,18.1576209 14.7444591,17.5978296 14.3056,17.3450991 L11.6955478,15.8383165 C11.2553391,15.5869565 10.6969043,15.7364139 10.4455304,16.173913 L10.4455652,16.173913 Z" id="Fill-11" fill="#A6A6A6"></path>
        <path d="M17.3450435,14.3043478 C17.51488,14.5978261 17.8219478,14.7622261 18.1385043,14.7622261 C18.2933948,14.7622261 18.4510052,14.7228243 18.5950261,14.6399443 C19.0325217,14.3872278 19.1819826,13.8274574 18.9306226,13.389927 L17.42384,10.7798748 C17.1711235,10.3423791 16.611353,10.1915617 16.1738226,10.4442783 C15.736327,10.6969948 15.5868661,11.2567652 15.8382261,11.6942957 L17.3450435,14.3043478 Z" id="Fill-13" fill="#A6A6A6"></path>
    </g>
</svg>
