
<svg width="48px" height="48px" viewBox="0 0 48 48" version="1.1" xmlns="http://www.w3.org/2000/svg" xmlns:xlink="http://www.w3.org/1999/xlink">
    <g id="2019.app" stroke="none" stroke-width="1" fill="none" fill-rule="evenodd">
        <path d="M23,34.813913 C22.4945739,34.813913 22.0856,35.222887 22.0856,35.728313 L22.0856,38.7378073 C22.0856,39.2432334 22.4945739,39.6522073 23,39.6522073 C23.5054261,39.6522073 23.9144,39.2432334 23.9144,38.7378073 L23.9144,35.728313 C23.9144,35.222887 23.5054261,34.813913 23,34.813913 Z" id="Fill-2" fill="#A6A6A6"></path>
        <path d="M22.0855652,9.26222609 L22.0855652,12.2744696 C22.0855652,12.7798957 22.4945391,13.1888696 22.9999652,13.1888696 C23.5053913,13.1888696 23.9143652,12.7798957 23.9143652,12.2744696 L23.9143652,9.26222609 C23.9143652,8.7568 23.5053913,8.34782609 22.9999652,8.34782609 C22.4945391,8.34782609 22.0855652,8.7568 22.0855652,9.26222609 Z" id="Fill-3" fill="#A6A6A6"></path>
        <path d="M15.6302609,37.677913 C15.9454783,37.677913 16.253913,37.5135096 16.4223652,37.2213913 L17.9291478,34.6140522 C18.1818643,34.1765565 18.0324104,33.6167652 17.5949078,33.3640348 C17.1560557,33.1113183 16.5976209,33.2607722 16.3448904,33.6982748 L14.8381078,36.3056139 C14.5853913,36.7431096 14.7348452,37.3029009 15.1723478,37.5556313 C15.3177287,37.6385113 15.4753357,37.677913 15.6302261,37.677913 L15.6302609,37.677913 Z" id="Fill-5" fill="#A6A6A6"></path>
        <path d="M9.44556522,31.826087 C9.61540174,32.1195652 9.92246957,32.2839652 10.2390261,32.2839652 C10.3939165,32.2839652 10.551527,32.2445635 10.6955478,32.1616835 L13.3056,30.6549009 C13.7430957,30.4021843 13.8925565,29.8424139 13.6411965,29.4048835 C13.38848,28.9673878 12.8287096,28.8165704 12.3911791,29.069287 L9.78112696,30.5760696 C9.34227478,30.8287861 9.19281391,31.3885565 9.44553043,31.826087 L9.44556522,31.826087 Z" id="Fill-7" fill="#A6A6A6"></path>
        <path d="M12.1902609,24 C12.1902609,23.4945739 11.781287,23.0856 11.2758609,23.0856 L8.26226122,23.0856 C7.75683513,23.0856 7.34786122,23.4945739 7.34786122,24 C7.34786122,24.5054261 7.75683513,24.9144 8.26226122,24.9144 L11.2745043,24.9144 C11.781287,24.9144 12.1902609,24.5054261 12.1902609,24 Z" id="Fill-9" fill="#A6A6A6"></path>
        <path d="M9.44556522,16.173913 C9.1928487,16.6114087 9.34230261,17.1712 9.78116174,17.4239304 L12.3912139,18.930713 C12.5352348,19.013593 12.6928452,19.0529948 12.8477357,19.0529948 C13.164313,19.0529948 13.4713878,18.8885913 13.6411965,18.5951165 C13.893913,18.1576209 13.7444591,17.5978296 13.3056,17.3450991 L10.6955478,15.8383165 C10.2553391,15.5869565 9.69690435,15.7364139 9.44553043,16.173913 L9.44556522,16.173913 Z" id="Fill-11" fill="#A6A6A6"></path>
        <path d="M16.3450435,14.3043478 C16.51488,14.5978261 16.8219478,14.7622261 17.1385043,14.7622261 C17.2933948,14.7622261 17.4510052,14.7228243 17.5950261,14.6399443 C18.0325217,14.3872278 18.1819826,13.8274574 17.9306226,13.389927 L16.42384,10.7798748 C16.1711235,10.3423791 15.611353,10.1915617 15.1738226,10.4442783 C14.736327,10.6969948 14.5868661,11.2567652 14.8382261,11.6942957 L16.3450435,14.3043478 Z" id="Fill-13" fill="#A6A6A6"></path>
        <path d="M29.5587277,37.677913 C29.873945,37.677913 30.1823798,37.5135096 30.350832,37.2213913 L31.8576146,34.6140522 C32.1103311,34.1765565 31.9608772,33.6167652 31.5233746,33.3640348 C31.0845224,33.1113183 30.5260877,33.2607722 30.2733572,33.6982748 L28.7665746,36.3056139 C28.5138581,36.7431096 28.663312,37.3029009 29.1008146,37.5556313 C29.2461955,37.6385113 29.4038024,37.677913 29.5586929,37.677913 L29.5587277,37.677913 Z" id="Fill-5" fill="#A6A6A6" transform="translate(30.312095, 35.459523) scale(-1, 1) translate(-30.312095, -35.459523) "></path>
        <path d="M33.0554592,31.826087 C33.2252957,32.1195652 33.5323636,32.2839652 33.8489201,32.2839652 C34.0038105,32.2839652 34.1614209,32.2445635 34.3054418,32.1616835 L36.915494,30.6549009 C37.3529896,30.4021843 37.5024505,29.8424139 37.2510905,29.4048835 C36.998374,28.9673878 36.4386036,28.8165704 36.0010731,29.069287 L33.3910209,30.5760696 C32.9521688,30.8287861 32.8027079,31.3885565 33.0554244,31.826087 L33.0554592,31.826087 Z" id="Fill-7" fill="#A6A6A6" transform="translate(35.152808, 30.615348) scale(-1, 1) translate(-35.152808, -30.615348) "></path>
        <path d="M39.3478612,24 C39.3478612,23.4945739 38.9388873,23.0856 38.4334612,23.0856 L35.4198616,23.0856 C34.9144355,23.0856 34.5054616,23.4945739 34.5054616,24 C34.5054616,24.5054261 34.9144355,24.9144 35.4198616,24.9144 L38.4321047,24.9144 C38.9388873,24.9144 39.3478612,24.5054261 39.3478612,24 Z" id="Fill-9" fill="#A6A6A6" transform="translate(36.926661, 24.000000) scale(-1, 1) translate(-36.926661, -24.000000) "></path>
        <path d="M33.0545259,16.173913 C32.8018094,16.6114087 32.9512633,17.1712 33.3901224,17.4239304 L36.0001746,18.930713 C36.1441955,19.013593 36.3018059,19.0529948 36.4566963,19.0529948 C36.7732737,19.0529948 37.0803485,18.8885913 37.2501572,18.5951165 C37.5028737,18.1576209 37.3534198,17.5978296 36.9145607,17.3450991 L34.3045085,15.8383165 C33.8642998,15.5869565 33.305865,15.7364139 33.0544911,16.173913 L33.0545259,16.173913 Z" id="Fill-11" fill="#A6A6A6" transform="translate(35.152342, 17.384679) scale(-1, 1) translate(-35.152342, -17.384679) "></path>
        <path d="M30.2719172,14.3043478 C30.4417537,14.5978261 30.7488216,14.7622261 31.0653781,14.7622261 C31.2202685,14.7622261 31.377879,14.7228243 31.5218998,14.6399443 C31.9593955,14.3872278 32.1088563,13.8274574 31.8574963,13.389927 L30.3507137,10.7798748 C30.0979972,10.3423791 29.5382268,10.1915617 29.1006963,10.4442783 C28.6632007,10.6969948 28.5137398,11.2567652 28.7650998,11.6942957 L30.2719172,14.3043478 Z" id="Fill-13" fill="#A6A6A6" transform="translate(30.311298, 12.541974) scale(-1, 1) translate(-30.311298, -12.541974) "></path>
        <circle id="Oval" stroke="#A6A6A6" stroke-width="2" fill-rule="nonzero" cx="23.5" cy="24.5" r="8.5"></circle>
    </g>
</svg>
